<svg width="180" height="45" viewBox="0 0 180 45" fill="none" xmlns="http://www.w3.org/2000/svg">
<g clip-path="url(#clip0_1046_2)">
<path d="M43.3176 35.6342C42.0848 35.6378 41.3721 36.3985 41.1797 37.9164C41.1405 38.2299 41.1209 38.5755 41.1209 38.9532C41.1209 41.0876 41.8532 42.1547 43.3176 42.1547C44.0481 42.1547 44.6947 41.957 45.2577 41.5615L45.7067 42.7159C45.4608 42.919 45.1045 43.0758 44.6377 43.1863C44.1745 43.3003 43.6597 43.3573 43.0932 43.3573C42.5302 43.3573 42.0082 43.2504 41.5271 43.0366C41.0461 42.8228 40.6577 42.5164 40.362 42.1173C39.774 41.3263 39.4801 40.2609 39.4801 38.9212C39.4765 37.5957 39.774 36.5268 40.3727 35.7144C40.672 35.3082 41.0621 34.9928 41.5431 34.7683C42.0277 34.5439 42.5497 34.4316 43.1091 34.4316C44.2636 34.4316 45.1099 34.6187 45.6479 34.9928L45.2203 36.1633C44.6787 35.8106 44.0445 35.6342 43.3176 35.6342ZM52.1513 37.9592C52.2832 37.8558 52.39 37.7186 52.472 37.5476C52.554 37.373 52.595 37.1895 52.595 36.9971C52.595 36.8047 52.5789 36.6497 52.5469 36.5321C52.5148 36.411 52.4649 36.3077 52.3972 36.2221C52.333 36.1366 52.2618 36.0618 52.1834 35.9976C52.105 35.9335 52.0052 35.8819 51.8841 35.8426C51.7629 35.8035 51.6489 35.7714 51.542 35.7464C51.4351 35.7215 51.3015 35.7037 51.1412 35.693C50.874 35.6752 50.5818 35.6663 50.2646 35.6663H49.5378V38.3653H50.3181C51.1946 38.3653 51.8057 38.2299 52.1513 37.9592ZM54.2465 36.7566C54.2465 37.4657 54.0309 37.9912 53.5997 38.3333C53.1722 38.6718 52.5789 38.8517 51.8199 38.8731C53.035 39.012 53.7939 39.42 54.0968 40.097C54.2179 40.3678 54.2785 40.6903 54.2785 41.0644V43.1756H52.6591V40.9522C52.6591 40.1932 52.3491 39.7193 51.7291 39.5305C51.3906 39.4271 50.9167 39.3755 50.3074 39.3755H49.5378V43.1756H47.9023V34.5866H50.2807C51.3354 34.5831 52.1406 34.6633 52.6965 34.8272C53.1989 34.9732 53.573 35.1906 53.8188 35.4792C54.1039 35.8106 54.2465 36.2364 54.2465 36.7566ZM56.8215 43.1756V34.5866H62.4284V35.6663H58.4516V38.1997H61.9206V39.1937H58.4516V42.112H62.4867V43.1756H56.8215ZM68.9424 34.5866L71.7853 43.1756H70.1447L69.514 41.2033H66.4358L65.8101 43.1756H64.1639L66.9861 34.5866H68.9424ZM66.6547 40.4177H69.3006L67.9962 36.3077L66.6547 40.4177ZM77.1878 35.6663V43.1756H75.5526V35.6663H73.2223V34.5866H79.4864V35.6663H77.1878ZM82.1627 42.3738V35.4044H81.169V34.5866H84.7818V35.4044H83.7717V42.3738H84.7818V43.1756H81.169V42.3738H82.1627ZM90.1094 41.1285L92.1028 34.5866H93.6419L90.959 43.1756H89.2326L86.5496 34.5866H88.0784L90.1094 41.1285ZM95.8056 43.1756V34.5866H101.412V35.6663H97.4359V38.1997H100.905V39.1937H97.4359V42.112H101.471V43.1756H95.8056ZM111.058 42.1547C112.051 42.1547 112.668 41.8768 112.907 41.321V39.5465H110.844V38.5417H114.35V43.1756H113.377L113.104 42.3044C112.969 42.6572 112.706 42.9208 112.313 43.0954C111.925 43.27 111.47 43.3573 110.951 43.3573C110.434 43.3573 109.976 43.286 109.577 43.1435C109.178 43.001 108.839 42.8015 108.561 42.5449C108.28 42.2883 108.047 41.9748 107.861 41.6042C107.498 40.8916 107.318 40.0079 107.321 38.9532C107.318 37.5636 107.641 36.4698 108.289 35.6716C108.959 34.845 109.964 34.4316 111.303 34.4316C112.34 34.4316 113.187 34.6668 113.842 35.1371L113.35 36.2381C112.656 35.8355 111.973 35.6342 111.303 35.6342C110.113 35.6342 109.376 36.2987 109.09 37.6278C109.005 38.0161 108.964 38.4562 108.967 38.9479C108.967 41.0858 109.664 42.1547 111.058 42.1547ZM121.286 37.9592C121.418 37.8558 121.525 37.7186 121.607 37.5476C121.688 37.373 121.73 37.1895 121.73 36.9971C121.73 36.8047 121.713 36.6497 121.682 36.5321C121.65 36.411 121.6 36.3077 121.532 36.2221C121.468 36.1366 121.397 36.0618 121.318 35.9976C121.24 35.9335 121.14 35.8819 121.019 35.8426C120.898 35.8035 120.784 35.7714 120.677 35.7464C120.57 35.7215 120.436 35.7037 120.276 35.693C120.009 35.6752 119.716 35.6663 119.4 35.6663H118.672V38.3653H119.453C120.329 38.3653 120.941 38.2299 121.286 37.9592ZM123.381 36.7566C123.381 37.4657 123.166 37.9912 122.734 38.3333C122.307 38.6718 121.713 38.8517 120.955 38.8731C122.17 39.012 122.928 39.42 123.231 40.097C123.353 40.3678 123.413 40.6903 123.413 41.0644V43.1756H121.794V40.9522C121.794 40.1932 121.484 39.7193 120.864 39.5305C120.525 39.4271 120.051 39.3755 119.442 39.3755H118.672V43.1756H117.037V34.5866H119.415C120.47 34.5831 121.276 34.6633 121.831 34.8272C122.334 34.9732 122.708 35.1906 122.953 35.4792C123.239 35.8106 123.381 36.2364 123.381 36.7566ZM129.526 34.437C130.103 34.437 130.633 34.5421 131.114 34.7523C131.598 34.959 131.99 35.2583 132.29 35.6502C132.881 36.4234 133.177 37.4888 133.177 38.8464C133.181 41.1874 132.406 42.6215 130.852 43.1489C130.432 43.2913 129.922 43.3626 129.323 43.3626C128.729 43.3626 128.187 43.254 127.698 43.0366C127.214 42.8157 126.826 42.5003 126.533 42.0906C125.963 41.2924 125.678 40.195 125.678 38.7983C125.678 37.1521 126.113 35.9584 126.983 35.2173C127.595 34.6971 128.443 34.437 129.526 34.437ZM130.911 36.2862C130.758 36.0903 130.557 35.9335 130.307 35.8159C130.061 35.6947 129.771 35.6342 129.436 35.6342C129.104 35.6342 128.812 35.693 128.559 35.8106C128.31 35.9281 128.106 36.0849 127.95 36.2809C127.796 36.4733 127.673 36.7138 127.581 37.0024C127.417 37.5084 127.334 38.1444 127.33 38.9105C127.33 40.1184 127.538 40.9842 127.955 41.508C128.297 41.9356 128.787 42.1494 129.425 42.1494C129.981 42.1494 130.414 41.998 130.724 41.6951C131.038 41.3886 131.249 40.9967 131.36 40.5192C131.474 40.0382 131.531 39.5572 131.531 39.0762C131.531 38.5952 131.513 38.2032 131.477 37.9003C131.442 37.5975 131.376 37.3017 131.28 37.0131C131.187 36.7209 131.064 36.4787 130.911 36.2862ZM137.217 39.2793C137.217 40.1309 137.284 40.7419 137.42 41.1125C137.548 41.4688 137.733 41.7253 137.975 41.8821C138.261 42.0674 138.626 42.1583 139.071 42.1547C139.762 42.1547 140.242 41.9534 140.509 41.5508C140.687 41.2871 140.796 41.0074 140.835 40.7116C140.896 40.2912 140.926 39.8138 140.926 39.2793V34.5866H142.561V39.2579C142.561 41.2996 141.945 42.5734 140.712 43.0794C140.263 43.2647 139.721 43.3573 139.087 43.3573C138.453 43.3573 137.908 43.2664 137.452 43.0847C136.996 42.903 136.632 42.634 136.362 42.2776C135.841 41.5935 135.581 40.587 135.581 39.2579V34.5866H137.217V39.2793ZM147.621 34.5866C149.132 34.5866 150.196 34.861 150.813 35.4097C151.311 35.8551 151.564 36.4929 151.572 37.3231C151.572 38.7305 150.803 39.5733 149.267 39.8512C148.761 39.9438 148.159 39.9883 147.461 39.9848H146.895V43.1756H145.259V34.5866H147.621ZM149.93 37.3178C149.93 37.0185 149.877 36.753 149.77 36.5214C149.667 36.2898 149.508 36.1134 149.294 35.9923C148.91 35.775 148.349 35.6663 147.611 35.6663H146.895V38.9479H147.413C148.386 38.9515 149.061 38.8072 149.439 38.515C149.767 38.2585 149.93 37.8594 149.93 37.3178ZM157.636 43.1756V34.5866H159.265V42.0959H163.113V43.1756H157.636ZM165.229 43.1756V34.5866H166.859V42.0959H170.707V43.1756H165.229ZM175.185 34.5866C176.696 34.5866 177.76 34.861 178.376 35.4097C178.875 35.8551 179.128 36.4929 179.135 37.3231C179.135 38.7305 178.367 39.5733 176.831 39.8512C176.325 39.9438 175.723 39.9883 175.025 39.9848H174.458V43.1756H172.823V34.5866H175.185ZM177.494 37.3178C177.494 37.0185 177.44 36.753 177.334 36.5214C177.231 36.2898 177.072 36.1134 176.858 35.9923C176.474 35.775 175.912 35.6663 175.175 35.6663H174.458V38.9479H174.977C175.949 38.9515 176.625 38.8072 177.003 38.515C177.33 38.2585 177.494 37.8594 177.494 37.3178Z" fill="white"/>
<path d="M15.8108 0H0V12.7703H15.8108V0Z" fill="#64AA44"/>
<path d="M15.8108 15.8108H0V29.1892H15.8108V15.8108Z" fill="#64AA44"/>
<path d="M15.8108 32.2297H0V45H15.8108V32.2297Z" fill="#64AA44"/>
<path d="M35.2703 0H18.8514V12.7703H35.2703V0Z" fill="#64AA44"/>
<path d="M35.2703 15.8108H18.8514V29.1892H35.2703V15.8108Z" fill="#64AA44"/>
<path d="M35.2703 32.2297H18.8514V45H35.2703V32.2297Z" fill="#64AA44"/>
<path d="M54.1216 0H38.3108V12.7703H54.1216V0Z" fill="#64AA44"/>
<path d="M54.1216 15.8108H38.3108V29.1892H54.1216V15.8108Z" fill="#64AA44"/>
</g>
<defs>
<clipPath id="clip0_1046_2">
<rect width="180" height="45" fill="white"/>
</clipPath>
</defs>
</svg>
